<svg width="20" height="20" viewBox="0 0 20 20"  xmlns="http://www.w3.org/2000/svg">
<path d="M11.852 8.27586H17.0371V9.65517H11.852V8.27586ZM11.852 4.82759H20V6.2069H11.852V4.82759ZM11.852 1.37931H20V2.75862H11.852V1.37931ZM5.92619 20H2.96328C2.57074 19.9989 2.1946 19.8532 1.91703 19.5948C1.63946 19.3364 1.483 18.9862 1.48183 18.6207V13.7931C1.08928 13.792 0.713149 13.6463 0.435576 13.3879C0.158004 13.1295 0.0015459 12.7793 0.000373531 12.4138V8.27586C-0.00505403 8.00277 0.0487162 7.73147 0.15847 7.47816C0.268223 7.22486 0.431706 6.99476 0.639146 6.80163C0.846586 6.60849 1.09372 6.45628 1.36578 6.35409C1.63784 6.25191 1.92924 6.20184 2.22255 6.2069H6.66692C6.96023 6.20184 7.25163 6.25191 7.52369 6.35409C7.79575 6.45628 8.04288 6.60849 8.25032 6.80163C8.45776 6.99476 8.62125 7.22486 8.731 7.47816C8.84075 7.73147 8.89452 8.00277 8.8891 8.27586V12.4138C8.88792 12.7793 8.73147 13.1295 8.45389 13.3879C8.17632 13.6463 7.80019 13.792 7.40764 13.7931V18.6207C7.40647 18.9862 7.25001 19.3364 6.97244 19.5948C6.69487 19.8532 6.31873 19.9989 5.92619 20V20ZM2.22255 7.58621C2.12373 7.58068 2.02477 7.59473 1.93221 7.62743C1.83965 7.66013 1.75559 7.71074 1.68559 7.77592C1.61558 7.8411 1.56122 7.91936 1.5261 8.00554C1.49098 8.09172 1.47589 8.18385 1.48183 8.27586V12.4138H2.96328V18.6207H5.92619V12.4138H7.40764V8.27586C7.41358 8.18385 7.39849 8.09172 7.36337 8.00554C7.32825 7.91936 7.27389 7.8411 7.20388 7.77592C7.13388 7.71074 7.04982 7.66013 6.95726 7.62743C6.8647 7.59473 6.76574 7.58068 6.66692 7.58621H2.22255ZM4.44474 5.51724C3.85873 5.51724 3.28588 5.35545 2.79863 5.05233C2.31138 4.74921 1.93162 4.31837 1.70737 3.8143C1.48311 3.31023 1.42443 2.75556 1.53876 2.22044C1.65308 1.68532 1.93527 1.19378 2.34964 0.807983C2.76401 0.422183 3.29195 0.159449 3.8667 0.0530074C4.44145 -0.0534346 5.03719 0.00119526 5.57859 0.209989C6.11999 0.418782 6.58273 0.772361 6.9083 1.22601C7.23387 1.67967 7.40764 2.21302 7.40764 2.75862C7.4053 3.48958 7.09238 4.18998 6.53724 4.70685C5.98209 5.22372 5.22983 5.51506 4.44474 5.51724V5.51724ZM4.44474 1.37931C4.15173 1.37931 3.86531 1.46021 3.62168 1.61177C3.37806 1.76333 3.18818 1.97875 3.07605 2.23078C2.96392 2.48282 2.93458 2.76015 2.99175 3.02771C3.04891 3.29527 3.19 3.54104 3.39719 3.73394C3.60437 3.92684 3.86834 4.05821 4.15572 4.11143C4.44309 4.16465 4.74096 4.13734 5.01166 4.03294C5.28236 3.92854 5.51373 3.75175 5.67652 3.52493C5.8393 3.2981 5.92619 3.03142 5.92619 2.75862C5.92502 2.39314 5.76856 2.04294 5.49099 1.78451C5.21341 1.52607 4.83728 1.3804 4.44474 1.37931V1.37931Z" />
</svg>
